<svg xmlns="http://www.w3.org/2000/svg" width="100%" height="100%" viewBox="0 0 850 507.5">
  <title>Javascript DOM Document Object Model</title>
  <path d="m 402.4,5.1 c 0,0 62.3,21.8 49.3,138.9 -2.6,23.6 -30.9,60 -70.9,81.8 -40,21.8 -116.7,-25.4 -172.7,-40 -57,-14.5 -80,10.9 -93,34.6 -13,23.6 -52.82,99.9 -52.82,99.9 0,0 55.32,-106.8 97.32,-119.6 42,-12.7 147.3,45.1 147.3,45.1 -109.3,21.1 -184,52.4 -175.8,189 0,0 4.7,-65.6 40.7,-112.8 37,-47.3 253.6,-77.1 253.6,-77.1 0,0 -30,50.1 -42.8,75.6 -52.9,97.5 -125.3,132.7 -218.5,152.6 0,0 77,0 136.8,-34.5 59.9,-34.5 81.7,-63.6 81.7,-63.6 0,0 3.7,20.5 7.3,51.4 2.7,23.2 8.3,25.4 11,25.1 -4.9,1.8 -22.6,9.3 -41.2,27.9 -21.8,21.8 -83.6,-0.1 -83.6,-0.1 0,0 61.5,27.7 85.2,11.3 23.6,-16.3 57.5,-17.7 57.5,-17.7 35.7,5 42.4,12 68,15.4 l 0,-26.8 c -9.6,2.7 -20.2,3.6 -32,2.8 -28.6,-2.1 -35.7,-19.1 -41.3,-45.1 -18.1,-85.4 -1.7,-82.9 -1.7,-82.9 0,0 19.9,16.9 41.7,38.7 12.2,5.9 23.2,11.6 33.3,17 l 0,-21 c -8.3,-6.3 -15.5,-12.5 -21.3,-18.4 -29,-30.9 -51.7,-44.9 -22.6,-88.5 22.5,-29.5 42.6,-65 42.6,-65 0.5,0.4 0.8,0.8 1.3,1.2 l 0,-164.6 C 441.7,23.9 437.3,8 402.4,5.1 Z" style="fill:#a08e82" />
  <path d="m 569.4,1.4 c 0,0 -1.3,0.8 -3.3,2.6 2.1,-1.6 3.3,-2.6 3.3,-2.6 z M 566.1,4 c -10.6,8.2 -44.9,33.2 -71.6,33.6 -2.7,-0.6 -5.2,-1.3 -7.7,-1.9 l 0,164.6 c 45.7,43.5 72,68.6 122.4,96.7 31.2,52 13.9,94.2 36.7,140 -2.1,-50.1 2.9,-88.3 -17.8,-137.3 110.8,33.8 89.1,166.3 148,171.8 58.8,5.5 44.1,-36.5 44.1,-36.5 0,0 1.4,43.9 -45.4,28.1 -38.3,-18.4 -23.5,-147.7 -153.6,-202.5 16.7,-14.6 54.3,-78.7 30.6,-50.9 -14.3,17.6 -28.6,27.7 -53.4,37.5 -28.3,-18.3 -53.3,-40 -65.1,-81 C 502.3,66.3 552.4,15.6 566.1,4 Z m -79.3,367 0,21 c 46.6,24.9 76.5,44.9 139.5,64.4 -46.1,-27.2 -103,-57.7 -139.5,-85.4 z m 40.7,62.6 c -1.2,-0.1 -3.4,1.5 -6.8,5.7 -8.8,10.9 -20.2,18.3 -33.9,22.2 l 0,26.8 c 19.5,2.5 50,2.9 112.9,-1.4 -57.6,-21.9 -121.6,-0.7 -97,-14.2 18.5,-11.2 29.5,-38.8 24.8,-39.1 z m 119.2,4.9 c 1,1.8 1.7,3.1 1.8,3.3 -0.1,-0.2 -0.6,-1.3 -1.8,-3.3 z" style="opacity:1;fill:#c3b8b0;stroke:none;stroke-width:20;stroke-linecap:round;stroke-linejoin:round;stroke-miterlimit:4;stroke-dasharray:none;stroke-opacity:1" />
<g style="fill:#6ecec2">
  <circle r="36" cy="469" cx="292" />
  <circle r="20" cy="485" cx="575" />
  <circle r="38" cy="403" cx="134" />
  <circle r="37" cy="299" cx="72" />
  <circle r="30" cy="468" cx="181" />
  <circle r="18" cy="454" cx="620" />
  <circle r="35" cy="410" cx="515" />
  <circle r="36" cy="420" cx="812" />
  <circle r="44" cy="461" cx="672" />
  <circle r="27" cy="259" cx="129" />
  <circle r="39" cy="191" cx="667" />
</g>
  <g transform="matrix(0.0263,0,0,0.0263,240.3,67.5)">
    <path d="M 6701,645 C 6454,754 6189,828 5911,861 6195,691 6413,421 6515,100 6249,258 5955,372 5642,434 5391,167 5034,0 4638,0 3879,0 3263,616 3263,1375 c 0,108 12,213 36,313 C 2156,1631 1143,1083 465,251 347,454 279,690 279,942 c 0,477 243,898 612,1144 -225,-7 -437,-69 -623,-172 0,6 0,11 0,17 0,666 474,1222 1103,1348 -115,31 -237,48 -362,48 -89,0 -175,-9 -259,-25 175,546 683,944 1284,955 -471,369 -1063,589 -1708,589 -111,0 -220,-7 -328,-19 608,390 1331,618 2108,618 2529,0 3912,-2095 3912,-3912 0,-60 -1,-119 -4,-178 269,-194 502,-436 686,-712 z" style="fill:#41abe1" />
  </g>
  <text transform="matrix(0,-1,1,0,0,0)" y="43" x="-496" style="font-size:39px;fill:#a08e82;font-family: sans-serif">Document Object Model</text>
</svg>
